<?xml version="1.0" encoding="UTF-8" standalone="no"?>
<svg
   xmlns:dc="http://purl.org/dc/elements/1.1/"
   xmlns:cc="http://creativecommons.org/ns#"
   xmlns:rdf="http://www.w3.org/1999/02/22-rdf-syntax-ns#"
   xmlns:svg="http://www.w3.org/2000/svg"
   xmlns="http://www.w3.org/2000/svg"
   version="1.0"
   width="324pt"
   height="151pt"
   viewBox="0 0 324 151"
   preserveAspectRatio="xMidYMid meet"
   id="svg28">
  <defs
     id="defs32" />
  <metadata
     id="metadata2">
Created by potrace 1.16, written by Peter Selinger 2001-2019
<rdf:RDF>
  <cc:Work
     rdf:about="">
    <dc:format>image/svg+xml</dc:format>
    <dc:type
       rdf:resource="http://purl.org/dc/dcmitype/StillImage" />
    <dc:title></dc:title>
  </cc:Work>
</rdf:RDF>
</metadata>
  <path
     d="m 252.9,15.5 c -4.5,2.4 -6.4,8.5 -6.4,20.5 0,5.8 0.3,12.7 0.7,15.5 l 0.7,5 -1.6,-3 c -3.9,-7.2 -5.6,-23.3 -3.4,-31.3 0.5,-1.7 0.7,-3.2 0.4,-3.2 -1.6,0 -14.4,7.5 -16.4,9.6 -4.9,5.2 -2.5,22 4.7,34 3.8,6.2 3,6.8 -2.5,1.9 -5.6,-5.1 -9.5,-14.3 -9.5,-22.8 l -0.1,-6.8 -2.3,2.8 c -19.6,24.3 -24.5,51.5 -11.3,62.5 3.7,3.2 8.5,4.3 15.2,3.5 2.7,-0.3 4.9,-0.4 4.9,-0.1 0,0.3 -2.5,3.5 -5.7,7 -9.7,11.1 -22.8,20.3 -29,20.4 -1.5,0 -2.3,0.6 -2.3,1.6 0,2.6 8.9,1.1 15.9,-2.6 6.4,-3.4 15.5,-12 20,-18.8 l 2.8,-4.3 0.6,6.1 c 2,18.8 18.6,27.6 37.5,19.7 3.5,-1.4 9.1,-4.6 12.5,-7.1 7.6,-5.4 19.4,-16.2 18.7,-16.9 -0.3,-0.3 -2.6,-0.1 -5,0.4 -5.6,1.3 -18.4,-0.3 -24.3,-2.9 -4.2,-1.9 -8.5,-5.7 -7.5,-6.7 0.3,-0.3 6.1,0.8 12.9,2.5 22.8,5.5 28.3,3.6 35.4,-12.4 2.8,-6.3 2.7,-7.3 -0.3,-5.7 -6.1,3.3 -23,3.1 -32.9,-0.3 -3.4,-1.2 -2.6,-1.3 11.2,-1.9 20.6,-0.9 21.9,-1.2 23.8,-5.2 2.2,-4.6 4,-15.2 3.2,-19.2 l -0.6,-3.4 -4.1,3.5 C 301,64.1 283,68.9 276,66.2 c -2.3,-0.9 -2.1,-1 2.5,-1.7 16.9,-2.4 27.2,-6.4 30.5,-11.8 2.6,-4.1 2.5,-7.6 -0.1,-13.8 l -2.2,-5 -1.7,3.8 c -2.6,5.8 -13.5,12.3 -20.6,12.3 -3.8,0 -2.9,-1.2 4.2,-5.5 7.1,-4.3 12.4,-9.6 12.4,-12.3 -0.1,-3 -3.7,-9.9 -7.6,-14.2 l -3.8,-4.2 -9,0.7 c -16.8,1.3 -19,3.7 -19.1,20.7 0,6 -0.3,10.8 -0.7,10.8 -0.4,0 -1.5,-1.5 -2.5,-3.3 -2.3,-4.5 -2.9,-17.8 -1,-24 1.4,-4.3 1.4,-4.7 -0.1,-4.7 -1,0.1 -2.9,0.7 -4.3,1.5 z m 10.5,67.1 c 2.7,2.6 1.7,5.8 -2.5,7.9 -5.7,3 -12.9,1.3 -12.9,-3 0,-5.3 11.4,-9 15.4,-4.9 z"
     id="path4"
     style="fill:#c5ffa5;fill-opacity:1;stroke:none;stroke-width:0.1" />
  <path
     d="m 139.3,31.6 c -0.9,0.4 -1.1,4.1 -0.6,14.8 0.3,7.9 0.3,15.5 -0.1,16.9 L 138,66 h -15 c -14.5,0 -15,-0.1 -16.1,-2.3 -1.4,-2.5 -1.8,-22.5 -0.6,-27 0.6,-2.3 0.4,-2.9 -1.8,-3.7 -1.5,-0.6 -7,-1 -12.3,-1 h -9.7 l 0.3,39.1 c 0.2,29.2 0,39.9 -0.9,42.1 -1.8,4.3 -0.3,4.8 13.6,4.6 l 12,-0.3 -0.2,-3 c -1,-12.7 -0.7,-26.3 0.6,-27.8 1.1,-1.4 3.5,-1.7 14.7,-1.7 12.5,0 13.4,0.1 14.4,2.1 1.3,2.4 1.9,22.1 0.8,26 -0.5,1.7 -0.3,3.3 0.6,4.5 1.2,1.6 3,1.9 12.3,2.2 5.9,0.1 11.4,-0.1 12,-0.6 1,-0.6 1,-2.7 0.1,-9.7 -0.6,-5 -1.1,-22.3 -1.1,-39 0,-25.9 0.3,-30.5 1.7,-33.9 1,-2.1 1.4,-4.1 1.1,-4.5 -0.8,-0.8 -23.6,-1.2 -25.2,-0.5 z"
     id="path8"
     style="fill:#000000;stroke:none;stroke-width:0.1" />
  <path
     d="m 37.1,34.9 c -1.2,0.8 -1.3,1.4 -0.3,3.6 0.8,1.8 1.2,10.6 1.2,28.6 v 26 l -2.5,2.4 c -3,3.1 -7.7,3.3 -12.4,0.4 -4.2,-2.5 -4.3,-2.4 -10.1,8.9 -5,9.6 -4.8,10.1 3.9,12.6 10.4,3 28.9,1.3 35,-3.1 1.4,-1.1 4,-4.6 5.6,-7.8 l 3,-5.9 0.7,-30 C 61.5,54 62,39.1 62.2,37.5 l 0.3,-3 -12,-0.3 c -6.6,-0.1 -12.6,0.2 -13.4,0.7 z"
     id="path18"
     style="fill:#000000;stroke:none;stroke-width:0.1" />
</svg>
