<?xml version="1.0" encoding="UTF-8" standalone="no"?>
<svg
   xmlns:dc="http://purl.org/dc/elements/1.1/"
   xmlns:cc="http://creativecommons.org/ns#"
   xmlns:rdf="http://www.w3.org/1999/02/22-rdf-syntax-ns#"
   xmlns:svg="http://www.w3.org/2000/svg"
   xmlns="http://www.w3.org/2000/svg"
   xmlns:sodipodi="http://sodipodi.sourceforge.net/DTD/sodipodi-0.dtd"
   xmlns:inkscape="http://www.inkscape.org/namespaces/inkscape"
   version="1.0"
   width="1123.000000pt"
   height="151.000000pt"
   viewBox="0 0 1123.000000 151.000000"
   preserveAspectRatio="xMidYMid meet"
   id="svg28"
   sodipodi:docname="LogoNegro.svg"
   inkscape:version="1.0.1 (3bc2e813f5, 2020-09-07)">
  <defs
     id="defs32" />
  <sodipodi:namedview
     pagecolor="#ffffff"
     bordercolor="#666666"
     borderopacity="1"
     objecttolerance="10"
     gridtolerance="10"
     guidetolerance="10"
     inkscape:pageopacity="0"
     inkscape:pageshadow="2"
     inkscape:window-width="2560"
     inkscape:window-height="1381"
     id="namedview30"
     showgrid="false"
     inkscape:zoom="1.0200472"
     inkscape:cx="819.04973"
     inkscape:cy="98.472646"
     inkscape:window-x="0"
     inkscape:window-y="0"
     inkscape:window-maximized="1"
     inkscape:current-layer="svg28"
     inkscape:document-rotation="0" />
  <metadata
     id="metadata2">
Created by potrace 1.16, written by Peter Selinger 2001-2019
<rdf:RDF>
  <cc:Work
     rdf:about="">
    <dc:format>image/svg+xml</dc:format>
    <dc:type
       rdf:resource="http://purl.org/dc/dcmitype/StillImage" />
  </cc:Work>
</rdf:RDF>
</metadata>
  <path
     d="m 1050.9,15.5 c -4.5,2.4 -6.4,8.5 -6.4,20.5 0,5.8 0.3,12.7 0.7,15.5 l 0.7,5 -1.6,-3 c -3.9,-7.2 -5.6,-23.3 -3.4,-31.3 0.5,-1.7 0.7,-3.2 0.4,-3.2 -1.6,0 -14.4,7.5 -16.4,9.6 -4.9,5.2 -2.5,22 4.7,34 3.8,6.2 3,6.8 -2.5,1.9 -5.6,-5.1 -9.5,-14.3 -9.5,-22.8 l -0.1,-6.8 -2.3,2.8 c -19.6,24.3 -24.5,51.5 -11.3,62.5 3.7,3.2 8.5,4.3 15.2,3.5 2.7,-0.3 4.9,-0.4 4.9,-0.1 0,0.3 -2.5,3.5 -5.7,7 -9.7,11.1 -22.8,20.3 -29,20.4 -1.5,0 -2.3,0.6 -2.3,1.6 0,2.6 8.9,1.1 15.9,-2.6 6.4,-3.4 15.5,-12 20,-18.8 l 2.8,-4.3 0.6,6.1 c 2,18.8 18.6,27.6 37.5,19.7 3.5,-1.4 9.1,-4.6 12.5,-7.1 7.6,-5.4 19.4,-16.2 18.7,-16.9 -0.3,-0.3 -2.6,-0.1 -5,0.4 -5.6,1.3 -18.4,-0.3 -24.3,-2.9 -4.2,-1.9 -8.5,-5.7 -7.5,-6.7 0.3,-0.3 6.1,0.8 12.9,2.5 22.8,5.5 28.3,3.6 35.4,-12.4 2.8,-6.3 2.7,-7.3 -0.3,-5.7 -6.1,3.3 -23,3.1 -32.9,-0.3 -3.4,-1.2 -2.6,-1.3 11.2,-1.9 20.6,-0.9 21.9,-1.2 23.8,-5.2 2.2,-4.6 4,-15.2 3.2,-19.2 l -0.6,-3.4 -4.1,3.5 c -7.8,6.7 -25.8,11.5 -32.8,8.8 -2.3,-0.9 -2.1,-1 2.5,-1.7 16.9,-2.4 27.2,-6.4 30.5,-11.8 2.6,-4.1 2.5,-7.6 -0.1,-13.8 l -2.2,-5 -1.7,3.8 c -2.6,5.8 -13.5,12.3 -20.6,12.3 -3.8,0 -2.9,-1.2 4.2,-5.5 7.1,-4.3 12.4,-9.6 12.4,-12.3 -0.1,-3 -3.7,-9.9 -7.6,-14.2 l -3.8,-4.2 -9,0.7 c -16.8,1.3 -19,3.7 -19.1,20.7 0,6 -0.3,10.8 -0.7,10.8 -0.4,0 -1.5,-1.5 -2.5,-3.3 -2.3,-4.5 -2.9,-17.8 -1,-24 1.4,-4.3 1.4,-4.7 -0.1,-4.7 -1,0.1 -2.9,0.7 -4.3,1.5 z m 10.5,67.1 c 2.7,2.6 1.7,5.8 -2.5,7.9 -5.7,3 -12.9,1.3 -12.9,-3 0,-5.3 11.4,-9 15.4,-4.9 z"
     id="path4"
     style="fill:#c5ffa5;stroke:none;stroke-width:0.1;fill-opacity:1" />
  <path
     d="m 304.1,32.6 c -18.7,4 -31.3,16.8 -34.3,34.8 -2.9,17.8 7.1,35.9 25.8,46.6 l 7.9,4.5 12.5,-0.1 c 11.8,0 12.9,-0.2 19.1,-3.1 3.6,-1.7 8.5,-4.3 10.7,-5.7 L 350,107 V 87.5 C 350,69.3 349.9,68 348.1,67 c -2.9,-1.5 -28.3,-1.3 -30.5,0.3 -1.4,1 -1.6,2.6 -1.4,10.2 l 0.3,9 5.5,0.3 c 12.5,0.7 6.9,10.1 -6.1,10.2 -6.7,0 -13.5,-2.7 -16.4,-6.4 -10.2,-13.4 -8.1,-29 4.9,-35.9 3.2,-1.7 5.8,-2.2 12.1,-2.2 9.6,0 14.7,2.1 17.8,7.3 l 2.1,3.5 6.2,-6.6 C 349.8,49 351.9,44.8 350,42.5 347.9,40 334.1,34 327,32.4 c -8,-1.7 -14.6,-1.7 -22.9,0.2 z"
     id="path6"
     style="fill:#000000;stroke:none;stroke-width:0.1" />
  <path
     d="m 628.3,31.6 c -0.9,0.4 -1.1,4.1 -0.6,14.8 0.3,7.9 0.3,15.5 -0.1,16.9 L 627,66 h -15 c -14.5,0 -15,-0.1 -16.1,-2.3 -1.4,-2.5 -1.8,-22.5 -0.6,-27 0.6,-2.3 0.4,-2.9 -1.8,-3.7 -1.5,-0.6 -7,-1 -12.3,-1 h -9.7 l 0.3,39.1 c 0.2,29.2 0,39.9 -0.9,42.1 -1.8,4.3 -0.3,4.8 13.6,4.6 l 12,-0.3 -0.2,-3 c -1,-12.7 -0.7,-26.3 0.6,-27.8 1.1,-1.4 3.5,-1.7 14.7,-1.7 12.5,0 13.4,0.1 14.4,2.1 1.3,2.4 1.9,22.1 0.8,26 -0.5,1.7 -0.3,3.3 0.6,4.5 1.2,1.6 3,1.9 12.3,2.2 5.9,0.1 11.4,-0.1 12,-0.6 1,-0.6 1,-2.7 0.1,-9.7 -0.6,-5 -1.1,-22.3 -1.1,-39 0,-25.9 0.3,-30.5 1.7,-33.9 1,-2.1 1.4,-4.1 1.1,-4.5 -0.8,-0.8 -23.6,-1.2 -25.2,-0.5 z"
     id="path8"
     style="fill:#000000;stroke:none;stroke-width:0.1" />
  <path
     d="m 366.3,32.8 c -0.9,0.6 -0.9,1.7 0.2,4.7 1.9,5.7 2.6,74 0.7,77.2 -1,1.9 -1,2.4 0.6,3.2 2.3,1.2 56,1.8 57.2,0.5 0.8,-0.8 3.8,-13 4.3,-17.4 0.2,-1.3 -2.5,-1.5 -18,-1.8 C 394.1,99 393,98.8 392,96.9 391.2,95.5 390.9,84.8 391.1,63.7 l 0.2,-31.2 -11.9,-0.3 c -6.5,-0.1 -12.4,0.2 -13.1,0.6 z"
     id="path10"
     style="fill:#000000;stroke:none;stroke-width:0.1" />
  <path
     d="m 697.8,33.9 c -7.5,2.4 -11.6,5.1 -17.2,11.1 -9.5,10.1 -13.9,25.1 -11.7,39.7 1.3,8.9 3.7,14.2 8.5,19.4 8.7,9.3 18.4,14.3 29.8,15.5 7.8,0.7 23.1,-2.4 29.3,-6 6.1,-3.6 14.3,-13.1 17.9,-20.6 2.9,-6.1 3.1,-7.2 3,-17.5 0,-10.4 -0.2,-11.4 -3.5,-18.5 -4.2,-8.8 -11,-15.6 -21,-21 -6.1,-3.3 -6.9,-3.5 -17.9,-3.7 -9.1,-0.2 -12.7,0.1 -17.2,1.6 z m 24.7,20.5 c 3.9,1.7 9.8,9.2 11.5,14.8 2.4,8.4 -1.7,21 -8.3,25.4 -5.7,3.8 -15.4,4.5 -22,1.6 -13.8,-6.1 -16.3,-26.7 -4.5,-37.9 5.3,-5 16.1,-6.9 23.3,-3.9 z"
     id="path12"
     style="fill:#000000;stroke:none;stroke-width:0.1" />
  <path
     d="m 78.5,33.7 c -1.4,1.2 -0.2,56.3 1.4,63.1 1,4.3 2.5,6.6 7.4,11.8 3.3,3.6 7.3,7.2 8.8,7.9 1.5,0.8 6.7,1.9 11.6,2.5 9.9,1.1 23.6,-0.6 29.4,-3.5 6.4,-3.4 11.6,-9.3 15.1,-17.3 l 3.2,-7.7 0.7,-26.5 c 0.3,-14.6 0.9,-27.6 1.4,-28.9 l 0.8,-2.3 -13.6,0.4 c -7.5,0.2 -13.9,0.6 -14.2,0.9 -0.3,0.4 -0.1,1.7 0.4,3.1 0.5,1.4 1,12.6 1.2,24.9 0.2,21.1 0.1,22.7 -2,28.1 -2.7,6.9 -6.6,9.8 -13.2,9.8 -5.8,0 -10.3,-2.8 -13.1,-8.2 -2,-4 -2.2,-5.9 -2.6,-27 -0.3,-15.3 -0.1,-23.7 0.7,-25.9 0.6,-1.9 0.8,-3.6 0.3,-4.1 C 101,33.6 79.8,32.6 78.5,33.7 Z"
     id="path14"
     style="fill:#000000;stroke:none;stroke-width:0.1" />
  <path
     d="m 773.1,34.1 c -1.7,0.7 -2.1,1.4 -1.6,2.7 1.4,3.5 1.6,18.4 0.6,47.2 -0.6,16.2 -1.2,30.6 -1.3,32 l -0.3,2.5 h 11.5 11.5 l 0.5,-23 0.5,-23 2.1,4.5 c 1.1,2.5 2.9,7 3.9,10 1,3 3.1,8.4 4.8,12 4.2,9.4 4.7,11.5 3.4,15 -1.6,4.2 -0.1,5 9.8,5 9.8,0 10.9,-0.6 9.4,-4.6 -1.1,-2.6 -0.6,-4.3 3.9,-14.9 2.7,-6.6 6.4,-15.7 8.2,-20.2 1.7,-4.6 3.6,-8.6 4.2,-8.9 0.8,-0.5 0.9,6.4 0.6,23.9 -0.5,23.3 -0.5,24.7 1.3,25.2 2.4,0.8 21.1,-1.3 22.2,-2.4 0.5,-0.5 0.3,-3.5 -0.4,-6.7 -1,-4.2 -1.4,-14.8 -1.4,-36.9 0,-27.6 0.2,-31.3 1.7,-34.2 2.4,-4.3 1.6,-4.7 -11.5,-5.1 -15,-0.6 -17.5,0 -19.4,4.6 -0.8,2 -4.1,9.5 -7.3,16.7 -3.2,7.1 -6.7,15.1 -7.8,17.7 -1.2,2.7 -2.5,4.8 -2.9,4.8 -0.5,0 -2.2,-2.6 -3.7,-5.8 -3.7,-7.4 -15.1,-33.1 -16,-35.8 -0.4,-1.2 -1.7,-2.5 -2.9,-2.8 -3.5,-0.9 -20.9,-0.6 -23.6,0.5 z"
     id="path16"
     style="fill:#000000;stroke:none;stroke-width:0.1" />
  <path
     d="m 37.1,34.9 c -1.2,0.8 -1.3,1.4 -0.3,3.6 0.8,1.8 1.2,10.6 1.2,28.6 v 26 l -2.5,2.4 c -3,3.1 -7.7,3.3 -12.4,0.4 -4.2,-2.5 -4.3,-2.4 -10.1,8.9 -5,9.6 -4.8,10.1 3.9,12.6 10.4,3 28.9,1.3 35,-3.1 1.4,-1.1 4,-4.6 5.6,-7.8 l 3,-5.9 0.7,-30 C 61.5,54 62,39.1 62.2,37.5 l 0.3,-3 -12,-0.3 c -6.6,-0.1 -12.6,0.2 -13.4,0.7 z"
     id="path18"
     style="fill:#000000;stroke:none;stroke-width:0.1" />
  <path
     d="m 230.5,35.2 c -0.3,0.7 -0.6,11.6 -0.7,24.2 l -0.3,23 -2.9,-4.4 C 225.1,75.6 218.9,67.6 213,60.1 207.1,52.6 200.6,43.9 198.6,40.7 L 194.9,35 h -10.7 c -13.6,0 -14.7,0.6 -12.8,7 1,3.3 1.4,13.9 1.7,40.2 0.3,24.7 0.7,35.9 1.5,36.2 0.6,0.2 5.7,0.7 11.4,1.1 l 10.2,0.8 -0.7,-21.9 c -0.4,-12.7 -0.3,-22.9 0.2,-24.3 0.9,-2.2 1.6,-1.5 9.5,10.1 4.7,6.9 10.5,14.9 12.9,18 2.4,3 5.7,7.9 7.4,11 2.3,4.4 3.6,5.8 5.8,6.2 5.1,1 23.2,0.7 24.4,-0.5 0.7,-0.7 0.5,-2.8 -1,-7.2 -1.8,-5.6 -2.1,-9.4 -2.5,-38 -0.3,-23.8 -0.1,-32.5 0.8,-34.8 0.7,-1.6 0.9,-3.3 0.6,-3.7 -0.4,-0.4 -5.7,-0.9 -11.7,-1 -8.4,-0.3 -11,-0.1 -11.4,1 z"
     id="path20"
     style="fill:#000000;stroke:none;stroke-width:0.1" />
  <path
     d="m 443.5,76.4 v 42.5 l 2.9,0.5 c 1.6,0.3 16.5,0.6 33.2,0.6 H 510 l 0.5,-2.3 c 0.3,-1.2 0.5,-5.8 0.3,-10.1 l -0.3,-7.9 -21.5,-0.1 -21.4,-0.1 -1,-3.3 c -0.7,-2.7 -0.6,-3.8 1.1,-6 1.9,-2.6 2.4,-2.7 11.9,-2.9 15.2,-0.4 14.4,0.1 14.4,-9.6 0,-4.5 -0.5,-8.9 -1,-9.7 -0.7,-1.2 -3.1,-1.4 -12.5,-1.1 -8,0.2 -12,-0.1 -13,-0.9 -2,-1.7 -2,-10.3 0,-12 1.1,-0.9 6.7,-1.1 21.4,-0.9 l 19.9,0.4 0.4,-8.5 c 0.4,-6.7 0.1,-8.8 -1.1,-9.8 -1.1,-0.9 -9.3,-1.2 -33,-1.2 h -31.6 z"
     id="path22"
     style="fill:#000000;stroke:none;stroke-width:0.1" />
  <path
     d="m 884.5,76.4 v 42.5 l 2.9,0.5 c 1.6,0.3 16.5,0.6 33.2,0.6 H 951 l 0.5,-2.3 c 0.3,-1.2 0.5,-5.8 0.3,-10.1 l -0.3,-7.9 -21.5,-0.1 -21.4,-0.1 -1,-3.3 c -0.7,-2.7 -0.6,-3.8 1.1,-6 1.9,-2.6 2.4,-2.7 11.9,-2.9 15.2,-0.4 14.4,0.1 14.4,-9.6 0,-4.5 -0.5,-8.9 -1,-9.7 -0.7,-1.2 -3.1,-1.4 -12.5,-1.1 -8,0.2 -12,-0.1 -13,-0.9 -2,-1.7 -2,-10.3 0,-12 1.1,-0.9 6.7,-1.1 21.4,-0.9 l 19.9,0.4 0.4,-8.5 c 0.4,-6.7 0.1,-8.8 -1.1,-9.8 -1.1,-0.9 -9.3,-1.2 -33,-1.2 h -31.6 z"
     id="path24"
     style="fill:#000000;stroke:none;stroke-width:0.1" />
</svg>
